<?xml version="1.0" encoding="utf-8"?>
<!-- Generator: Adobe Illustrator 19.1.0, SVG Export Plug-In . SVG Version: 6.00 Build 0)  -->
<svg version="1.1" id="Layer_1" xmlns="http://www.w3.org/2000/svg" xmlns:xlink="http://www.w3.org/1999/xlink" x="0px" y="0px"
	 viewBox="0 0 67 67" style="enable-background:new 0 0 67 67;" xml:space="preserve">
<style type="text/css">
	.st0{fill:none;}
</style>
<path class="st0" d="M14.2,52.5c0,0.3,0.3,0.6,0.6,0.6c1.6,0,3.1-0.1,4.6-0.6c1.1-0.4,2.1-0.9,2.8-1.8c1.3-1.5,1.4-3.5,1.7-5.4
	c0-0.2,0.2-0.3,0.3-0.3c0.2,0,0.4,0,0.6-0.1c0.2,0,0.4,0.1,0.4,0.3c0.1,0.4,0.2,0.9,0.3,1.3c1.5,4.4,6.4,5.3,10.5,4.3
	c1.7-0.4,3.1-1.2,4.5-2.2c1.2-0.9,2.4-1.8,3.9-2.2c0.4-0.1,0.8-0.2,1.2-0.2c0.5,0,0.7,0.2,0.9,0.3c0.3,0.3,0.6,0.4,1,0.4h1.4
	c0.4,0,0.8-0.2,1.1-0.5c2.8-3.5,4.2-8,4.2-12.6c0-10.9-8.5-19.9-19-19.9c-4.6,0-9.1,1.8-12.4,4.9c-2.1,1.9-3.9,4.3-5,6.9
	c-1,2.3-2.2,5.7,0.5,7.3c1.9,1.1,4.1,1.2,5.8,2.6c0.7,0.6,1.1,1.3,1.5,2.1c0.1,0.2,0,0.5-0.3,0.6l-11.4,2.8
	c-0.4,0.1-0.7,0.5-0.6,0.9C12.9,42.3,13.9,50.3,14.2,52.5z M37.2,37.2c1.4,0,2.5,1.1,2.5,2.5c0,1.4-1.1,2.5-2.5,2.5
	c-1.4,0-2.5-1.1-2.5-2.5C34.7,38.4,35.8,37.2,37.2,37.2z M24.3,42.5c0.1-0.6,0.1-1,0.2-1.4c0-0.2,0.1-0.3,0.3-0.3c0.1,0,0.1,0,0.2,0
	c0.2,0,0.3,0.1,0.3,0.3c-0.1,0.5-0.1,1-0.1,1.5c0,0.2-0.2,0.3-0.3,0.4c0,0,0,0-0.1,0C24.4,42.9,24.2,42.7,24.3,42.5z M21.8,45.8
	c-0.1,0.5-0.1,1.1-0.2,1.7c-0.4,3.1-3.4,3.7-5.1,3.8c-0.2,0-0.4-0.1-0.4-0.3l-0.6-4.5c0-0.2,0.1-0.4,0.3-0.4
	c1.2-0.1,3.2-0.4,5.5-0.7C21.6,45.3,21.8,45.5,21.8,45.8z M15.3,42.7c1.6-0.3,4.5-1,6.6-1.4c0.2,0,0.3,0.1,0.3,0.3
	c0,0.4-0.1,0.8-0.2,1.3c0,0.2-0.2,0.3-0.3,0.3c-2.6,0.3-5,0.6-6.2,0.7c-0.2,0-0.4-0.1-0.4-0.3L15,43.1C15,43,15.1,42.8,15.3,42.7z"
	/>
</svg>
